%TF.GenerationSoftware,KiCad,Pcbnew,5.1.10-88a1d61d58~90~ubuntu21.04.1*%
%TF.CreationDate,2021-07-25T10:33:28+05:30*%
%TF.ProjectId,_autosave-STM tinker,5f617574-6f73-4617-9665-2d53544d2074,rev?*%
%TF.SameCoordinates,Original*%
%TF.FileFunction,Soldermask,Bot*%
%TF.FilePolarity,Negative*%
%FSLAX46Y46*%
G04 Gerber Fmt 4.6, Leading zero omitted, Abs format (unit mm)*
G04 Created by KiCad (PCBNEW 5.1.10-88a1d61d58~90~ubuntu21.04.1) date 2021-07-25 10:33:28*
%MOMM*%
%LPD*%
G01*
G04 APERTURE LIST*
%TA.AperFunction,Profile*%
%ADD10C,0.050000*%
%TD*%
%ADD11C,1.252000*%
%ADD12C,1.000000*%
%ADD13C,8.700000*%
%ADD14C,2.500000*%
%ADD15O,0.900000X1.400000*%
%ADD16O,1.850000X1.600000*%
G04 APERTURE END LIST*
D10*
X30750000Y-41000000D02*
G75*
G02*
X36250000Y-35500000I5500000J0D01*
G01*
X36250000Y-86500000D02*
G75*
G02*
X30750000Y-81000000I0J5500000D01*
G01*
X86750000Y-81000000D02*
G75*
G02*
X81250000Y-86500000I-5500000J0D01*
G01*
X81250000Y-35500000D02*
G75*
G02*
X86750000Y-41000000I0J-5500000D01*
G01*
X30750000Y-81000000D02*
X30750000Y-41000000D01*
X81250000Y-86500000D02*
X36250000Y-86500000D01*
X86750000Y-41000000D02*
X86750000Y-81000000D01*
X36250000Y-35500000D02*
X81250000Y-35500000D01*
D11*
%TO.C,REF\u002A\u002A*%
X75250000Y-81000000D03*
%TD*%
%TO.C,REF\u002A\u002A*%
X75250000Y-41000000D03*
%TD*%
%TO.C,REF\u002A\u002A*%
X42500000Y-41000000D03*
%TD*%
D12*
%TO.C,SW1*%
X32920000Y-50500000D03*
X32920000Y-53500000D03*
%TD*%
D13*
%TO.C,H1*%
X81250000Y-41000000D03*
D12*
X84475000Y-41000000D03*
X83530419Y-43280419D03*
X81250000Y-44225000D03*
X78969581Y-43280419D03*
X78025000Y-41000000D03*
X78969581Y-38719581D03*
X81250000Y-37775000D03*
X83530419Y-38719581D03*
%TD*%
%TO.C,H2*%
X83530419Y-78719581D03*
X81250000Y-77775000D03*
X78969581Y-78719581D03*
X78025000Y-81000000D03*
X78969581Y-83280419D03*
X81250000Y-84225000D03*
X83530419Y-83280419D03*
X84475000Y-81000000D03*
D13*
X81250000Y-81000000D03*
%TD*%
%TO.C,H3*%
X36250000Y-81000000D03*
D12*
X39475000Y-81000000D03*
X38530419Y-83280419D03*
X36250000Y-84225000D03*
X33969581Y-83280419D03*
X33025000Y-81000000D03*
X33969581Y-78719581D03*
X36250000Y-77775000D03*
X38530419Y-78719581D03*
%TD*%
%TO.C,H4*%
X38530419Y-38719581D03*
X36250000Y-37775000D03*
X33969581Y-38719581D03*
X33025000Y-41000000D03*
X33969581Y-43280419D03*
X36250000Y-44225000D03*
X38530419Y-43280419D03*
X39475000Y-41000000D03*
D13*
X36250000Y-41000000D03*
%TD*%
%TO.C,J1*%
G36*
G01*
X82450000Y-71750000D02*
X80050000Y-71750000D01*
G75*
G02*
X80000000Y-71700000I0J50000D01*
G01*
X80000000Y-69300000D01*
G75*
G02*
X80050000Y-69250000I50000J0D01*
G01*
X82450000Y-69250000D01*
G75*
G02*
X82500000Y-69300000I0J-50000D01*
G01*
X82500000Y-71700000D01*
G75*
G02*
X82450000Y-71750000I-50000J0D01*
G01*
G37*
D14*
X81250000Y-67000000D03*
%TD*%
D15*
%TO.C,J3*%
X47500000Y-41000000D03*
X48750000Y-41000000D03*
X50000000Y-41000000D03*
G36*
G01*
X51700000Y-40525000D02*
X51700000Y-41475000D01*
G75*
G02*
X51475000Y-41700000I-225000J0D01*
G01*
X51025000Y-41700000D01*
G75*
G02*
X50800000Y-41475000I0J225000D01*
G01*
X50800000Y-40525000D01*
G75*
G02*
X51025000Y-40300000I225000J0D01*
G01*
X51475000Y-40300000D01*
G75*
G02*
X51700000Y-40525000I0J-225000D01*
G01*
G37*
%TD*%
%TO.C,J4*%
G36*
G01*
X47050000Y-81475000D02*
X47050000Y-80525000D01*
G75*
G02*
X47275000Y-80300000I225000J0D01*
G01*
X47725000Y-80300000D01*
G75*
G02*
X47950000Y-80525000I0J-225000D01*
G01*
X47950000Y-81475000D01*
G75*
G02*
X47725000Y-81700000I-225000J0D01*
G01*
X47275000Y-81700000D01*
G75*
G02*
X47050000Y-81475000I0J225000D01*
G01*
G37*
X48750000Y-81000000D03*
X50000000Y-81000000D03*
X51250000Y-81000000D03*
%TD*%
D16*
%TO.C,J5*%
X84575000Y-55550000D03*
X84575000Y-48950000D03*
%TD*%
M02*
