M48
; DRILL file {KiCad 5.1.10-88a1d61d58~90~ubuntu21.04.1} date Sun Jul 25 10:55:43 2021
; FORMAT={-:-/ absolute / inch / decimal}
; #@! TF.CreationDate,2021-07-25T10:55:43+05:30
; #@! TF.GenerationSoftware,Kicad,Pcbnew,5.1.10-88a1d61d58~90~ubuntu21.04.1
; #@! TF.FileFunction,Plated,1,4,PTH
FMAT,2
INCH
T1C0.0157
T2C0.0197
T3C0.0236
T4C0.0394
T5C0.0433
T6C0.0472
T7C0.1693
%
G90
G05
T1
X1.4124Y-1.9587
X1.4124Y-2.1358
X1.4321Y-2.4449
X1.4675Y-2.5197
X1.5354Y-2.5876
X1.5364Y-2.6486
X1.565Y-2.2835
X1.5994Y-2.3583
X1.6142Y-2.501
X1.6329Y-2.2844
X1.6339Y-2.6604
X1.6358Y-2.1654
X1.6634Y-2.3524
X1.6634Y-2.501
X1.7323Y-2.1289
X1.8022Y-2.7756
X1.811Y-2.1348
X1.8514Y-2.0965
X1.8789Y-2.1654
X1.8996Y-2.7756
X2.0364Y-2.0965
X2.0689Y-2.3209
X2.1063Y-2.0079
X2.1526Y-2.7402
X2.1909Y-2.2854
X2.2136Y-2.7854
X2.2146Y-2.1949
X2.2431Y-2.7165
X2.2854Y-2.2274
X2.3504Y-1.4724
X2.4321Y-2.8888
X2.4321Y-2.936
X2.4508Y-1.4724
X2.4577Y-3.0413
X2.4577Y-3.1496
X2.5Y-1.4724
X2.5433Y-3.0413
X2.5433Y-3.1496
X2.5512Y-1.4705
X2.5669Y-2.8888
X2.5669Y-2.936
X2.6526Y-3.0069
X2.6526Y-3.0738
X2.6526Y-3.1171
X2.6526Y-3.1841
X2.6654Y-2.625
X2.6654Y-2.6713
X2.7598Y-1.5453
X2.7608Y-1.6319
X2.7756Y-2.8504
X2.7756Y-2.9252
X2.7756Y-2.9646
X2.8435Y-2.6781
X2.8563Y-2.9557
X2.8937Y-2.9911
X2.9281Y-2.6772
X2.9626Y-2.7274
X2.9705Y-2.4744
X2.9705Y-2.5453
X2.9931Y-1.9852
X2.999Y-2.7628
X3.0315Y-2.8583
X3.0679Y-2.8937
X3.124Y-1.9547
X3.124Y-2.0059
X3.1732Y-1.9547
X3.1732Y-2.0059
T2
X1.8701Y-1.6142
X1.8701Y-3.189
X1.9193Y-1.6142
X1.9193Y-3.189
X1.9685Y-1.6142
X1.9685Y-3.189
X2.0177Y-1.6142
X2.0177Y-3.189
T3
X1.3002Y-1.6142
X1.3002Y-3.189
X1.3374Y-1.5244
X1.3374Y-1.704
X1.3374Y-3.0992
X1.3374Y-3.2788
X1.4272Y-1.4872
X1.4272Y-1.7411
X1.4272Y-3.062
X1.4272Y-3.3159
X1.5169Y-1.5244
X1.5169Y-1.704
X1.5169Y-3.0992
X1.5169Y-3.2788
X1.5541Y-1.6142
X1.5541Y-3.189
X3.0719Y-1.6142
X3.0719Y-3.189
X3.109Y-1.5244
X3.109Y-1.704
X3.109Y-3.0992
X3.109Y-3.2788
X3.1988Y-1.4872
X3.1988Y-1.7411
X3.1988Y-3.062
X3.1988Y-3.3159
X3.2886Y-1.5244
X3.2886Y-1.704
X3.2886Y-3.0992
X3.2886Y-3.2788
X3.3258Y-1.6142
X3.3258Y-3.189
T6
X3.1988Y-2.6378
X3.1988Y-2.7756
T7
X1.4272Y-1.6142
X1.4272Y-3.189
X3.1988Y-1.6142
X3.1988Y-3.189
T4
G00X3.3346Y-2.187
M15
G01X3.3248Y-2.187
M16
G05
T5
G00X3.3327Y-1.9272
M15
G01X3.3268Y-1.9272
M16
G05
T0
M30
